<?xml version="1.0" encoding="UTF-8" standalone="no"?><!DOCTYPE svg PUBLIC "-//W3C//DTD SVG 1.1//EN" "http://www.w3.org/Graphics/SVG/1.1/DTD/svg11.dtd"><!-- Generated by graphviz version 2.40.1 (20161225.0304)
 --><!-- Title: %0 Pages: 1 --><svg xmlns="http://www.w3.org/2000/svg" xmlns:xlink="http://www.w3.org/1999/xlink" width="242pt" height="199pt" viewBox="0.00 0.00 241.74 199.20">
<g id="graph0" class="graph" transform="scale(1 1) rotate(0) translate(4 195.2)">
<title>%0</title>
<polygon fill="#ffffff" stroke="transparent" points="-4,4 -4,-195.2 237.742,-195.2 237.742,4 -4,4"/>
<!-- Source -->
<g id="node1" class="node">
<title>Source</title>
<polygon fill="none" stroke="#000000" points="185.1259,-191.0019 59.8847,-191.0019 59.8847,-149.7981 185.1259,-149.7981 185.1259,-191.0019"/>
<text text-anchor="middle" x="122.5053" y="-174.6" font-family="Times,serif" font-size="14.00" fill="#000000">ONNC source code</text>
<text text-anchor="middle" x="122.5053" y="-157.8" font-family="Times,serif" font-size="14.00" fill="#000000">(.cpp)</text>
</g>
<!-- GCC -->
<g id="node2" class="node">
<title>GCC</title>
<ellipse fill="none" stroke="#000000" cx="122.5053" cy="-95.6" rx="30.777" ry="18"/>
<text text-anchor="middle" x="122.5053" y="-91.4" font-family="Times,serif" font-size="14.00" fill="#000000">GCC</text>
</g>
<!-- Source&#45;&gt;GCC -->
<g id="edge1" class="edge">
<title>Source-&gt;GCC</title>
<path fill="none" stroke="#000000" d="M122.5053,-149.564C122.5053,-141.6614 122.5053,-132.5223 122.5053,-124.0373"/>
<polygon fill="#000000" stroke="#000000" points="126.0054,-123.7816 122.5053,-113.7816 119.0054,-123.7816 126.0054,-123.7816"/>
</g>
<!-- ONNC -->
<g id="node3" class="node">
<title>ONNC</title>
<polygon fill="none" stroke="#000000" points="119.0159,-41.4019 -.0053,-41.4019 -.0053,-.1981 119.0159,-.1981 119.0159,-41.4019"/>
<text text-anchor="middle" x="59.5053" y="-25" font-family="Times,serif" font-size="14.00" fill="#000000">ONNC executable</text>
<text text-anchor="middle" x="59.5053" y="-8.2" font-family="Times,serif" font-size="14.00" fill="#000000">(onnc)</text>
</g>
<!-- GCC&#45;&gt;ONNC -->
<g id="edge2" class="edge">
<title>GCC-&gt;ONNC</title>
<path fill="none" stroke="#000000" d="M108.8352,-79.3695C101.4679,-70.6223 92.1604,-59.5715 83.6203,-49.4318"/>
<polygon fill="#000000" stroke="#000000" points="86.1067,-46.9507 76.9876,-41.5568 80.7526,-51.4601 86.1067,-46.9507"/>
</g>
<!-- Runtime -->
<g id="node4" class="node">
<title>Runtime</title>
<polygon fill="none" stroke="#000000" points="233.9799,-41.4019 137.0307,-41.4019 137.0307,-.1981 233.9799,-.1981 233.9799,-41.4019"/>
<text text-anchor="middle" x="185.5053" y="-25" font-family="Times,serif" font-size="14.00" fill="#000000">ONNC library</text>
<text text-anchor="middle" x="185.5053" y="-8.2" font-family="Times,serif" font-size="14.00" fill="#000000">(libonnc-rt.a)</text>
</g>
<!-- GCC&#45;&gt;Runtime -->
<g id="edge3" class="edge">
<title>GCC-&gt;Runtime</title>
<path fill="none" stroke="#000000" d="M136.1754,-79.3695C143.5427,-70.6223 152.8502,-59.5715 161.3903,-49.4318"/>
<polygon fill="#000000" stroke="#000000" points="164.258,-51.4601 168.023,-41.5568 158.9039,-46.9507 164.258,-51.4601"/>
</g>
</g>
</svg>