<?xml version="1.0" encoding="UTF-8" standalone="no"?><!DOCTYPE svg PUBLIC "-//W3C//DTD SVG 1.1//EN" "http://www.w3.org/Graphics/SVG/1.1/DTD/svg11.dtd"><!-- Generated by graphviz version 2.40.1 (20161225.0304)
 --><!-- Title: %0 Pages: 1 --><svg xmlns="http://www.w3.org/2000/svg" xmlns:xlink="http://www.w3.org/1999/xlink" width="322pt" height="199pt" viewBox="0.00 0.00 322.19 199.20">
<g id="graph0" class="graph" transform="scale(1 1) rotate(0) translate(4 195.2)">
<title>%0</title>
<polygon fill="#ffffff" stroke="transparent" points="-4,4 -4,-195.2 318.1901,-195.2 318.1901,4 -4,4"/>
<!-- Model -->
<g id="node1" class="node">
<title>Model</title>
<polygon fill="none" stroke="#000000" points="191.6922,-191.0019 96.8478,-191.0019 96.8478,-149.7981 191.6922,-149.7981 191.6922,-191.0019"/>
<text text-anchor="middle" x="144.27" y="-174.6" font-family="Times,serif" font-size="14.00" fill="#000000">ONNX model</text>
<text text-anchor="middle" x="144.27" y="-157.8" font-family="Times,serif" font-size="14.00" fill="#000000">(.onnx)</text>
</g>
<!-- ONNC -->
<g id="node2" class="node">
<title>ONNC</title>
<ellipse fill="none" stroke="#000000" cx="144.27" cy="-95.6" rx="82.7683" ry="18"/>
<text text-anchor="middle" x="144.27" y="-91.4" font-family="Times,serif" font-size="14.00" fill="#000000">ONNC C-backend</text>
</g>
<!-- Model&#45;&gt;ONNC -->
<g id="edge1" class="edge">
<title>Model-&gt;ONNC</title>
<path fill="none" stroke="#000000" d="M144.27,-149.564C144.27,-141.6614 144.27,-132.5223 144.27,-124.0373"/>
<polygon fill="#000000" stroke="#000000" points="147.7701,-123.7816 144.27,-113.7816 140.7701,-123.7816 147.7701,-123.7816"/>
</g>
<!-- C -->
<g id="node3" class="node">
<title>C</title>
<polygon fill="none" stroke="#000000" points="122.3109,-41.4019 .2291,-41.4019 .2291,-.1981 122.3109,-.1981 122.3109,-41.4019"/>
<text text-anchor="middle" x="61.27" y="-25" font-family="Times,serif" font-size="14.00" fill="#000000">model_main() in C</text>
<text text-anchor="middle" x="61.27" y="-8.2" font-family="Times,serif" font-size="14.00" fill="#000000">(.c)</text>
</g>
<!-- ONNC&#45;&gt;C -->
<g id="edge2" class="edge">
<title>ONNC-&gt;C</title>
<path fill="none" stroke="#000000" d="M124.6002,-77.8734C114.8792,-69.1129 102.9244,-58.3391 92.0299,-48.521"/>
<polygon fill="#000000" stroke="#000000" points="94.1032,-45.6778 84.3316,-41.5832 89.417,-50.8778 94.1032,-45.6778"/>
</g>
<!-- W -->
<g id="node4" class="node">
<title>W</title>
<polygon fill="none" stroke="#000000" points="314.1103,-41.4019 140.4297,-41.4019 140.4297,-.1981 314.1103,-.1981 314.1103,-41.4019"/>
<text text-anchor="middle" x="227.27" y="-25" font-family="Times,serif" font-size="14.00" fill="#000000">Weight file in binary format</text>
<text text-anchor="middle" x="227.27" y="-8.2" font-family="Times,serif" font-size="14.00" fill="#000000">(.weight)</text>
</g>
<!-- ONNC&#45;&gt;W -->
<g id="edge3" class="edge">
<title>ONNC-&gt;W</title>
<path fill="none" stroke="#000000" d="M163.9398,-77.8734C173.6608,-69.1129 185.6156,-58.3391 196.5101,-48.521"/>
<polygon fill="#000000" stroke="#000000" points="199.123,-50.8778 204.2084,-41.5832 194.4368,-45.6778 199.123,-50.8778"/>
</g>
</g>
</svg>