<?xml version="1.0" encoding="UTF-8" standalone="no"?><!DOCTYPE svg PUBLIC "-//W3C//DTD SVG 1.1//EN" "http://www.w3.org/Graphics/SVG/1.1/DTD/svg11.dtd"><!-- Generated by graphviz version 2.40.1 (20161225.0304)
 --><!-- Title: %0 Pages: 1 --><svg xmlns="http://www.w3.org/2000/svg" xmlns:xlink="http://www.w3.org/1999/xlink" width="415pt" height="210pt" viewBox="0.00 0.00 414.51 210.40">
<g id="graph0" class="graph" transform="scale(1 1) rotate(0) translate(4 206.4)">
<title>%0</title>
<polygon fill="#ffffff" stroke="transparent" points="-4,4 -4,-206.4 410.5067,-206.4 410.5067,4 -4,4"/>
<!-- Model -->
<g id="node1" class="node">
<title>Model</title>
<polygon fill="none" stroke="#000000" points="122.3109,-193.8019 .2291,-193.8019 .2291,-152.5981 122.3109,-152.5981 122.3109,-193.8019"/>
<text text-anchor="middle" x="61.27" y="-177.4" font-family="Times,serif" font-size="14.00" fill="#000000">model_main() in C</text>
<text text-anchor="middle" x="61.27" y="-160.6" font-family="Times,serif" font-size="14.00" fill="#000000">(.c)</text>
</g>
<!-- GCC -->
<g id="node2" class="node">
<title>GCC</title>
<ellipse fill="none" stroke="#000000" cx="216.27" cy="-90" rx="30.777" ry="18"/>
<text text-anchor="middle" x="216.27" y="-85.8" font-family="Times,serif" font-size="14.00" fill="#000000">GCC</text>
</g>
<!-- Model&#45;&gt;GCC -->
<g id="edge1" class="edge">
<title>Model-&gt;GCC</title>
<path fill="none" stroke="#000000" d="M99.9832,-152.4197C126.0625,-138.421 160.037,-120.1844 184.5214,-107.0418"/>
<polygon fill="#000000" stroke="#000000" points="186.2488,-110.087 193.4044,-102.2737 182.9382,-103.9193 186.2488,-110.087"/>
</g>
<!-- Executable -->
<g id="node5" class="node">
<title>Executable</title>
<polygon fill="none" stroke="#000000" points="343.2553,-36 89.2847,-36 89.2847,0 343.2553,0 343.2553,-36"/>
<text text-anchor="middle" x="216.27" y="-13.8" font-family="Times,serif" font-size="14.00" fill="#000000">Executable for a certain model's inference</text>
</g>
<!-- GCC&#45;&gt;Executable -->
<g id="edge4" class="edge">
<title>GCC-&gt;Executable</title>
<path fill="none" stroke="#000000" d="M216.27,-71.8314C216.27,-64.131 216.27,-54.9743 216.27,-46.4166"/>
<polygon fill="#000000" stroke="#000000" points="219.7701,-46.4132 216.27,-36.4133 212.7701,-46.4133 219.7701,-46.4132"/>
</g>
<!-- Main -->
<g id="node3" class="node">
<title>Main</title>
<polygon fill="none" stroke="#000000" points="292.3444,-202.6014 140.1956,-202.6014 140.1956,-143.7986 292.3444,-143.7986 292.3444,-202.6014"/>
<text text-anchor="middle" x="216.27" y="-185.8" font-family="Times,serif" font-size="14.00" fill="#000000">handcrafted main()</text>
<text text-anchor="middle" x="216.27" y="-169" font-family="Times,serif" font-size="14.00" fill="#000000">who calls model_main()</text>
<text text-anchor="middle" x="216.27" y="-152.2" font-family="Times,serif" font-size="14.00" fill="#000000">(.c)</text>
</g>
<!-- Main&#45;&gt;GCC -->
<g id="edge2" class="edge">
<title>Main-&gt;GCC</title>
<path fill="none" stroke="#000000" d="M216.27,-143.6325C216.27,-135.4486 216.27,-126.5848 216.27,-118.465"/>
<polygon fill="#000000" stroke="#000000" points="219.7701,-118.339 216.27,-108.339 212.7701,-118.3391 219.7701,-118.339"/>
</g>
<!-- Runtime -->
<g id="node4" class="node">
<title>Runtime</title>
<polygon fill="none" stroke="#000000" points="406.7446,-193.8019 309.7954,-193.8019 309.7954,-152.5981 406.7446,-152.5981 406.7446,-193.8019"/>
<text text-anchor="middle" x="358.27" y="-177.4" font-family="Times,serif" font-size="14.00" fill="#000000">ONNC library</text>
<text text-anchor="middle" x="358.27" y="-160.6" font-family="Times,serif" font-size="14.00" fill="#000000">(libonnc-rt.a)</text>
</g>
<!-- Runtime&#45;&gt;GCC -->
<g id="edge3" class="edge">
<title>Runtime-&gt;GCC</title>
<path fill="none" stroke="#000000" d="M322.8037,-152.4197C299.5554,-138.7982 269.4586,-121.164 247.1874,-108.115"/>
<polygon fill="#000000" stroke="#000000" points="248.8635,-105.0405 238.466,-103.005 245.3247,-111.0802 248.8635,-105.0405"/>
</g>
</g>
</svg>