<?xml version="1.0" encoding="UTF-8" standalone="no"?><!DOCTYPE svg PUBLIC "-//W3C//DTD SVG 1.1//EN" "http://www.w3.org/Graphics/SVG/1.1/DTD/svg11.dtd"><!-- Generated by graphviz version 2.40.1 (20161225.0304)
 --><!-- Title: %0 Pages: 1 --><svg xmlns="http://www.w3.org/2000/svg" xmlns:xlink="http://www.w3.org/1999/xlink" width="284pt" height="194pt" viewBox="0.00 0.00 283.55 193.60">
<g id="graph0" class="graph" transform="scale(1 1) rotate(0) translate(4 189.6)">
<title>%0</title>
<polygon fill="#ffffff" stroke="transparent" points="-4,4 -4,-189.6 279.5509,-189.6 279.5509,4 -4,4"/>
<!-- Input -->
<g id="node1" class="node">
<title>Input</title>
<polygon fill="none" stroke="#000000" points="83.3928,-185.4019 -.1312,-185.4019 -.1312,-144.1981 83.3928,-144.1981 83.3928,-185.4019"/>
<text text-anchor="middle" x="41.6308" y="-169" font-family="Times,serif" font-size="14.00" fill="#000000">Input image</text>
<text text-anchor="middle" x="41.6308" y="-152.2" font-family="Times,serif" font-size="14.00" fill="#000000">(.input)</text>
</g>
<!-- Executable -->
<g id="node2" class="node">
<title>Executable</title>
<ellipse fill="none" stroke="#000000" cx="114.6308" cy="-90" rx="53.8712" ry="18"/>
<text text-anchor="middle" x="114.6308" y="-85.8" font-family="Times,serif" font-size="14.00" fill="#000000">Executable</text>
</g>
<!-- Input&#45;&gt;Executable -->
<g id="edge1" class="edge">
<title>Input-&gt;Executable</title>
<path fill="none" stroke="#000000" d="M61.9654,-143.964C70.8868,-134.8227 81.4228,-124.0268 90.7178,-114.5026"/>
<polygon fill="#000000" stroke="#000000" points="93.372,-116.7941 97.8516,-107.1929 88.3623,-111.905 93.372,-116.7941"/>
</g>
<!-- Result -->
<g id="node4" class="node">
<title>Result</title>
<polygon fill="none" stroke="#000000" points="169.0167,-36 60.2449,-36 60.2449,0 169.0167,0 169.0167,-36"/>
<text text-anchor="middle" x="114.6308" y="-13.8" font-family="Times,serif" font-size="14.00" fill="#000000">Inference results</text>
</g>
<!-- Executable&#45;&gt;Result -->
<g id="edge3" class="edge">
<title>Executable-&gt;Result</title>
<path fill="none" stroke="#000000" d="M114.6308,-71.8314C114.6308,-64.131 114.6308,-54.9743 114.6308,-46.4166"/>
<polygon fill="#000000" stroke="#000000" points="118.1309,-46.4132 114.6308,-36.4133 111.1309,-46.4133 118.1309,-46.4132"/>
</g>
<!-- Weight -->
<g id="node3" class="node">
<title>Weight</title>
<polygon fill="none" stroke="#000000" points="275.4711,-185.4019 101.7905,-185.4019 101.7905,-144.1981 275.4711,-144.1981 275.4711,-185.4019"/>
<text text-anchor="middle" x="188.6308" y="-169" font-family="Times,serif" font-size="14.00" fill="#000000">Weight file in binary format</text>
<text text-anchor="middle" x="188.6308" y="-152.2" font-family="Times,serif" font-size="14.00" fill="#000000">(.weight)</text>
</g>
<!-- Weight&#45;&gt;Executable -->
<g id="edge2" class="edge">
<title>Weight-&gt;Executable</title>
<path fill="none" stroke="#000000" d="M168.0177,-143.964C158.9741,-134.8227 148.2937,-124.0268 138.8713,-114.5026"/>
<polygon fill="#000000" stroke="#000000" points="141.1609,-111.8404 131.6398,-107.1929 136.1846,-116.7634 141.1609,-111.8404"/>
</g>
</g>
</svg>